<?xml version="1.0" encoding="utf-8"?>
<svg xmlns="http://www.w3.org/2000/svg" viewBox="118.24 166.752 256.281 165.537" xmlns:bx="https://boxy-svg.com" width="256.281px" height="165.537px"><defs><bx:export><bx:file format="svg"/></bx:export></defs><g data-name="Ebene 2" transform="matrix(3.537641, 0, 0, 3.537641, 122.822021, 171.609238)" style=""><g data-name="Ebene 1"><path d="M51.44 4.89l-5.1-.16c-.32 0-.45 0-.45.41 0 1 0 1 1 1 1.78 0 3.57-.09 5.36.07a4.21 4.21 0 0 1 2.39.93 87.71 87.71 0 0 1 11.86 11.7 12.33 12.33 0 0 1 2.59 6.42 36.13 36.13 0 0 1 .32 5.6 8.24 8.24 0 0 1-.41 2.61c-.09.22 0 .27.17.37a1.18 1.18 0 0 1 .69 1.5l-.17 1.08a1.39 1.39 0 0 1-1.56 1.32h-4.91c-.29 0-.37-.09-.39-.39a6.86 6.86 0 0 0-13.61-.79c-.06.33.07.81-.19 1s-.7.06-1.07.06H20.29c-.46 0-.55-.14-.6-.56a6.57 6.57 0 0 0-4.4-5.69 6.53 6.53 0 0 0-7.1 1.41A6.62 6.62 0 0 0 6 37.4c0 .28-.12.35-.38.34H1.4A1.33 1.33 0 0 1 0 36.22V35a1 1 0 0 1 .67-1.1c.59-.18.48-.55.43-.95a89.42 89.42 0 0 1-.58-6.53 73.94 73.94 0 0 1 .31-12.27 31.67 31.67 0 0 1 1-5.46 3.16 3.16 0 0 1 3.44-2.57h4c.33 0 .41-.07.41-.4 0-1 0-1-1-1L1.14 5c-.17 0-.42.14-.5-.13A.51.51 0 0 1 1 4.36a7.88 7.88 0 0 1 2.69-.86c1-.18 1.95-.33 2.93-.46.34 0 .43-.16.31-.49A3 3 0 0 0 5.33.67C5.18.61 5 .59 5 .35s.27-.2.43-.25a3.18 3.18 0 0 1 3.81 2.15c.11.35.23.46.6.42a178.77 178.77 0 0 1 23.34-.87c2.43.06 4.86.06 7.29.16a91.31 91.31 0 0 1 13.1 1.13 10.92 10.92 0 0 1 2.3.64 3 3 0 0 1 .72.41c.26.18.5.45.39.78s-.44.14-.66.13c-1.63 0-3.26-.1-4.88-.15zm-17 17.56H1.36c-.13 0-.33.1-.31.35.12 1.33.07 2.67.16 4 .13 2.13.34 4.25.56 6.37 0 .4.17.57.61.55h3.59a.91.91 0 0 0 .86-.42 7.27 7.27 0 0 1 6.45-3 7.51 7.51 0 0 1 6.83 5.38c.13.43 0 1.05.4 1.25a3.32 3.32 0 0 0 1.38.05H48c.42 0 .57-.08.65-.54a6.88 6.88 0 0 1 2.12-4 7.49 7.49 0 0 1 11.37 1 .77.77 0 0 0 .69.35h4.48c1 0 1.11-.08 1.3-1.1a.34.34 0 0 0 0-.1 18.8 18.8 0 0 0 .08-5.19 26.76 26.76 0 0 0-.69-4.34c-.11-.46-.3-.62-.81-.62q-16.37.03-32.74.01zm-.19-.65h32.68c.59 0 .59 0 .32-.54a11.3 11.3 0 0 0-1.5-2.26A98.76 98.76 0 0 0 55 8.2a5.76 5.76 0 0 0-4.1-1.44H5.09a2.49 2.49 0 0 0-2.51 1.8A18.23 18.23 0 0 0 2 11a57.49 57.49 0 0 0-.9 10.14c0 .68 0 .68.67.68zM56.39 4.67a3.14 3.14 0 0 0-1.88-1 55.32 55.32 0 0 0-9.32-1.14c-2.34-.15-4.67-.23-7-.31-1.94-.06-3.89-.06-5.83-.09-3 0-6.07-.1-9.11.05-1.39.07-2.78.07-4.16.15-.67 0-1.35 0-2 .1-2.76.22-5.53.38-8.28.7a45.2 45.2 0 0 0-6.48 1.11 1.45 1.45 0 0 0-.87.42c2.37-.1 4.65-.22 6.94-.3l5.87-.21c2.81-.15 5.62-.15 8.42-.21 3.63 0 7.26-.06 10.89.05 2.77.09 5.54.11 8.32.22s5.37.16 8.06.23h1.35zM27.78 6.12h15.89c.91 0 .89 0 .92-.93 0-.44-.13-.54-.54-.55-5.34-.14-10.68-.31-16-.33s-10.79.16-16.18.33c-.82 0-.78 0-.83.88 0 .52.13.61.62.61 5.34-.02 10.73-.01 16.12-.01zM62.7 34.35a7.62 7.62 0 0 1 .75 2.44c0 .22.09.3.31.3h4.48a.69.69 0 0 0 .77-.67c0-.4.13-.79.19-1.19.09-.6-.12-.86-.75-.87zm-56.54 0H1.44c-.56 0-.78.25-.79.8v1.14c0 .52.23.78.76.78h3.7c.17 0 .28 0 .3-.24a8 8 0 0 1 .75-2.48z" fill="#070606"/><path d="M62 37.77a6 6 0 0 1-6 6 6.05 6.05 0 1 1 0-12.1 6 6 0 0 1 6 6.1zm-6 5.35a5.34 5.34 0 0 0 5.37-5.34 5.38 5.38 0 1 0-10.75 0A5.28 5.28 0 0 0 56 43.12zM6.85 37.73a6 6 0 0 1 6-6 6.05 6.05 0 1 1-6 6zm6 5.39a5.29 5.29 0 0 0 5.38-5.35 5.38 5.38 0 1 0-10.75 0 5.33 5.33 0 0 0 5.38 5.35z" fill="#070606"/><path d="M34.45 22.45h32.73c.51 0 .7.16.81.62a26.76 26.76 0 0 1 .66 4.26 18.8 18.8 0 0 1-.08 5.19.34.34 0 0 1 0 .1c-.19 1-.28 1.1-1.3 1.1h-4.48a.77.77 0 0 1-.69-.35 7.49 7.49 0 0 0-11.37-1 6.88 6.88 0 0 0-2.12 4c-.08.46-.23.54-.65.54H21.89a3.32 3.32 0 0 1-1.38-.05c-.41-.2-.27-.82-.4-1.25a7.51 7.51 0 0 0-6.83-5.38 7.27 7.27 0 0 0-6.45 3 .91.91 0 0 1-.86.42H2.38c-.44 0-.57-.15-.61-.55-.22-2.12-.43-4.24-.56-6.37-.09-1.33 0-2.67-.16-4 0-.25.05-.37.31-.35s.27 0 .41 0z" fill="#65a7a0"/><path d="M34.26 21.8H1.74c-.68 0-.68 0-.67-.68A57.49 57.49 0 0 1 2 11a18.23 18.23 0 0 1 .61-2.42 2.49 2.49 0 0 1 2.48-1.81H50.9A5.76 5.76 0 0 1 55 8.2 98.76 98.76 0 0 1 65.75 19a11.3 11.3 0 0 1 1.5 2.31c.27.54.27.54-.32.54H34.26zM18.48 8.63H6.39a1.49 1.49 0 0 0-1.69 1.69v7.92c0 1.29.52 1.8 1.8 1.8h24c1.28 0 1.8-.52 1.8-1.8v-7.81c0-1.28-.52-1.8-1.8-1.8zM51.32 20h9.06a1.53 1.53 0 0 0 1.62-.87 1.58 1.58 0 0 0-.52-1.82c-2.6-2.52-5.21-5-7.8-7.57A3.75 3.75 0 0 0 51 8.63h-8.74a1.52 1.52 0 0 0-1.73 1.72v7.92c0 1.23.55 1.77 1.78 1.77z" fill="#f9f9f9"/><path d="M56.39 4.67l-5.08-.19L50 4.44c-2.69-.07-5.38-.12-8.06-.23s-5.59-.13-8.36-.21c-3.63-.11-7.26-.08-10.89-.05-2.8 0-5.61.1-8.42.21l-5.87.2c-2.29.08-4.57.2-6.94.3a1.45 1.45 0 0 1 .87-.42 45.2 45.2 0 0 1 6.45-1.07c2.75-.32 5.52-.48 8.28-.7.67-.05 1.35-.06 2-.1 1.38-.08 2.77-.08 4.16-.15 3-.15 6.07-.1 9.11-.05 1.94 0 3.89 0 5.83.09 2.34.08 4.67.16 7 .31a55.32 55.32 0 0 1 9.32 1.14 3.14 3.14 0 0 1 1.91.96z" fill="#4e4f4e"/><path d="M62.7 34.35h5.75c.63 0 .84.27.75.87-.06.4-.15.79-.19 1.19a.69.69 0 0 1-.77.67h-4.48c-.22 0-.28-.08-.31-.3a7.62 7.62 0 0 0-.75-2.43z" fill="#fdfdfd"/><path d="M6.16 34.35a8 8 0 0 0-.75 2.49c0 .22-.13.25-.3.24h-3.7c-.53 0-.75-.26-.76-.78v-1.15c0-.55.23-.79.79-.8z" fill="#f9f9f9"/><path d="M18.48 8.63h12c1.28 0 1.8.52 1.8 1.8v7.81c0 1.28-.52 1.8-1.8 1.8H6.5c-1.28 0-1.8-.51-1.8-1.8v-7.92a1.49 1.49 0 0 1 1.69-1.69zM8.61 19.34H28a26.21 26.21 0 0 1-2.7-3.65 20.21 20.21 0 0 1-2.78-5.89c-.1-.4-.22-.53-.64-.53h-6.51c-.54 0-.79.12-.83.66a2.78 2.78 0 0 1-.22.69 25.21 25.21 0 0 1-3.43 6 31.82 31.82 0 0 1-2.28 2.72zm23-5v-3.8c0-1-.23-1.27-1.24-1.27H24c-1 0-1 0-.68 1a26.11 26.11 0 0 0 4.55 7.93c1 1.27 1 1.25 2.63 1.24.87 0 1.14-.28 1.14-1.16zm-26.27-.06v4.11a1 1 0 0 0 .33.83 2.48 2.48 0 0 0 2.25-.14 28.45 28.45 0 0 0 3.81-4.86 18.42 18.42 0 0 0 2.19-4.45c.11-.37.08-.52-.37-.51H6.42c-.82 0-1.08.27-1.08 1.11zM51.32 20h-9c-1.23 0-1.78-.54-1.78-1.77v-7.88a1.52 1.52 0 0 1 1.73-1.72H51a3.75 3.75 0 0 1 2.72 1.11c2.59 2.53 5.2 5 7.8 7.57a1.58 1.58 0 0 1 .48 1.82 1.53 1.53 0 0 1-1.61.91zm0-.65h9c.46 0 .87-.05 1-.57s-.04-.78-.32-1.04l-7.7-7.47a3.25 3.25 0 0 0-2.42-1h-8.52c-.92 0-1.18.26-1.18 1.18v7.76c0 .91.26 1.17 1.18 1.17zM58.89 37.75a2.87 2.87 0 0 1-2.92 3 3 3 0 0 1-2.92-3 2.92 2.92 0 0 1 3-2.87 2.81 2.81 0 0 1 2.84 2.87zm-.64 0A2.25 2.25 0 0 0 56 35.5a2.27 2.27 0 0 0 0 4.5 2.26 2.26 0 0 0 2.25-2.21zM12.84 40.7a3 3 0 0 1-2.91-2.94 2.9 2.9 0 0 1 3-2.91 2.93 2.93 0 1 1-.07 5.85zm0-.72a2.22 2.22 0 0 0 2.31-2 2.26 2.26 0 0 0-2.23-2.51 2.2 2.2 0 0 0-2.32 2.3A2.07 2.07 0 0 0 12.8 40z" fill="#070606"/><path d="M31.63 14.34v3.9c0 .88-.27 1.16-1.14 1.16-1.61 0-1.63 0-2.63-1.24a26.11 26.11 0 0 1-4.55-7.93c-.32-1-.31-1 .68-1h6.4c1 0 1.24.24 1.24 1.27zM5.34 14.28v-3.9c0-.84.26-1.11 1.08-1.11h7.13c.45 0 .48.14.37.51a18.42 18.42 0 0 1-2.19 4.45 28.45 28.45 0 0 1-3.81 4.86 2.48 2.48 0 0 1-2.25.14 1 1 0 0 1-.33-.83zM58.25 37.79A2.26 2.26 0 0 1 56 40a2.27 2.27 0 0 1 0-4.54 2.25 2.25 0 0 1 2.25 2.33z" fill="#f9f9f9"/><path d="M12.8 40a2.07 2.07 0 0 1-2.24-2.18 2.2 2.2 0 0 1 2.32-2.3A2.26 2.26 0 0 1 15.11 38a2.22 2.22 0 0 1-2.31 2z" fill="#fdfdfd"/></g></g><path style="fill: rgb(7, 6, 6); transform-box: fill-box; transform-origin: 50% 50%;" transform="matrix(-0.059794, 0.223152, -0.223152, -0.059794, -347.020966, -397.83493)" d="M 509.729 616.633 L 521.019 616.633 L 523.281 663.004 A 40.529 40.529 0 0 1 528.402 664.376 L 553.546 625.349 L 563.323 630.993 L 542.097 672.283 A 40.529 40.529 0 0 1 545.845 676.031 L 587.135 654.805 L 592.779 664.582 L 553.752 689.726 A 40.529 40.529 0 0 1 555.124 694.847 L 601.495 697.109 L 601.495 708.399 L 555.124 710.661 A 40.529 40.529 0 0 1 553.752 715.782 L 592.779 740.926 L 587.135 750.703 L 545.845 729.477 A 40.529 40.529 0 0 1 542.097 733.225 L 563.323 774.515 L 553.546 780.159 L 528.402 741.132 A 40.529 40.529 0 0 1 523.281 742.504 L 521.019 788.875 L 509.729 788.875 L 507.467 742.504 A 40.529 40.529 0 0 1 502.346 741.132 L 477.202 780.159 L 467.425 774.515 L 488.651 733.225 A 40.529 40.529 0 0 1 484.903 729.477 L 443.613 750.703 L 437.969 740.926 L 476.996 715.782 A 40.529 40.529 0 0 1 475.624 710.661 L 429.253 708.399 L 429.253 697.109 L 475.624 694.847 A 40.529 40.529 0 0 1 476.996 689.726 L 437.969 664.582 L 443.613 654.805 L 484.903 676.031 A 40.529 40.529 0 0 1 488.651 672.283 L 467.425 630.993 L 477.202 625.349 L 502.346 664.376 A 40.529 40.529 0 0 1 507.467 663.004 Z M 515.374 674.94 A 27.814 27.814 0 0 0 515.374 730.568 A 27.814 27.814 0 0 0 515.374 674.94" bx:shape="cog 515.374 702.754 27.814 40.529 86.121 0.5 12 1@0e7a4f24" id="object-0"><animateTransform type="rotate" additive="sum" attributeName="transform" values="0;360" begin="0s" dur="1s" fill="freeze" keyTimes="0; 1" repeatCount="indefinite"/></path><path style="fill: rgb(7, 6, 6); transform-origin: 515.374px 702.754px;" transform="matrix(-0.059794, 0.223152, -0.223152, -0.059794, -194.006943, -397.60611)" d="M 509.729 616.633 L 521.019 616.633 L 523.281 663.004 A 40.529 40.529 0 0 1 528.402 664.376 L 553.546 625.349 L 563.323 630.993 L 542.097 672.283 A 40.529 40.529 0 0 1 545.845 676.031 L 587.135 654.805 L 592.779 664.582 L 553.752 689.726 A 40.529 40.529 0 0 1 555.124 694.847 L 601.495 697.109 L 601.495 708.399 L 555.124 710.661 A 40.529 40.529 0 0 1 553.752 715.782 L 592.779 740.926 L 587.135 750.703 L 545.845 729.477 A 40.529 40.529 0 0 1 542.097 733.225 L 563.323 774.515 L 553.546 780.159 L 528.402 741.132 A 40.529 40.529 0 0 1 523.281 742.504 L 521.019 788.875 L 509.729 788.875 L 507.467 742.504 A 40.529 40.529 0 0 1 502.346 741.132 L 477.202 780.159 L 467.425 774.515 L 488.651 733.225 A 40.529 40.529 0 0 1 484.903 729.477 L 443.613 750.703 L 437.969 740.926 L 476.996 715.782 A 40.529 40.529 0 0 1 475.624 710.661 L 429.253 708.399 L 429.253 697.109 L 475.624 694.847 A 40.529 40.529 0 0 1 476.996 689.726 L 437.969 664.582 L 443.613 654.805 L 484.903 676.031 A 40.529 40.529 0 0 1 488.651 672.283 L 467.425 630.993 L 477.202 625.349 L 502.346 664.376 A 40.529 40.529 0 0 1 507.467 663.004 Z M 515.374 674.94 A 27.814 27.814 0 0 0 515.374 730.568 A 27.814 27.814 0 0 0 515.374 674.94" bx:shape="cog 515.374 702.754 27.814 40.529 86.121 0.5 12 1@0e7a4f24"><animateTransform type="rotate" additive="sum" attributeName="transform" values="0;360" dur="1s" fill="freeze" repeatCount="indefinite" keyTimes="0; 1"/></path></svg>